<svg id="Layer_1" enable-background="new 0 0 512 512" height="512" viewBox="0 0 512 512" width="512" xmlns="http://www.w3.org/2000/svg"><g><path d="m89.179 323.5h333.85v181h-333.85z" fill="#ff4656"/><path d="m423.029 323.5v181h-333.85v-23h296.22c8.08 0 14.63-6.54 14.63-14.62v-143.38z" fill="#d93c49"/></g><g><path d="m118.257 359v110c0 4.142 3.357 7.5 7.5 7.5s7.5-3.358 7.5-7.5v-110c0-4.142-3.357-7.5-7.5-7.5s-7.5 3.358-7.5 7.5z"/><path d="m155.498 359v110c0 4.142 3.357 7.5 7.5 7.5s7.5-3.358 7.5-7.5v-110c0-4.142-3.357-7.5-7.5-7.5s-7.5 3.358-7.5 7.5z"/><path d="m200.24 351.5c-4.143 0-7.5 3.358-7.5 7.5v110c0 4.142 3.357 7.5 7.5 7.5s7.5-3.358 7.5-7.5v-110c0-4.142-3.357-7.5-7.5-7.5z"/><path d="m229.982 359v110c0 4.142 3.357 7.5 7.5 7.5s7.5-3.358 7.5-7.5v-110c0-4.142-3.357-7.5-7.5-7.5s-7.5 3.358-7.5 7.5z"/><path d="m267.225 359v110c0 4.142 3.357 7.5 7.5 7.5s7.5-3.358 7.5-7.5v-110c0-4.142-3.357-7.5-7.5-7.5s-7.5 3.358-7.5 7.5z"/><path d="m304.467 359v110c0 4.142 3.357 7.5 7.5 7.5s7.5-3.358 7.5-7.5v-110c0-4.142-3.357-7.5-7.5-7.5s-7.5 3.358-7.5 7.5z"/><path d="m341.708 359v110c0 4.142 3.357 7.5 7.5 7.5s7.5-3.358 7.5-7.5v-110c0-4.142-3.357-7.5-7.5-7.5s-7.5 3.358-7.5 7.5z"/><path d="m378.95 359v110c0 4.142 3.357 7.5 7.5 7.5s7.5-3.358 7.5-7.5v-110c0-4.142-3.357-7.5-7.5-7.5s-7.5 3.358-7.5 7.5z"/><path d="m504.5 60.327h-39.971l16.882-25.327h23.089c4.143 0 7.5-3.358 7.5-7.5s-3.357-7.5-7.5-7.5h-207.016v-12.5c0-4.142-3.357-7.5-7.5-7.5s-7.5 3.358-7.5 7.5v12.5h-20.497v-12.5c0-4.142-3.357-7.5-7.5-7.5s-7.5 3.358-7.5 7.5v12.5h-20.496v-12.5c0-4.142-3.357-7.5-7.5-7.5s-7.5 3.358-7.5 7.5v12.5h-203.991c-4.143 0-7.5 3.358-7.5 7.5s3.357 7.5 7.5 7.5h37.235l-16.883 25.327h-20.352c-4.143 0-7.5 3.358-7.5 7.5s3.357 7.5 7.5 7.5h203.991v12.5c0 4.142 3.357 7.5 7.5 7.5s7.5-3.358 7.5-7.5v-12.5h20.496v46.041c-18.215 3.515-32.017 19.581-32.017 38.809 0 16.669 10.372 30.961 25 36.76l-109.129 119.063h-56.205c-4.143 0-7.5 3.358-7.5 7.5s3.357 7.5 7.5 7.5h7.042v166h-7.042c-4.143 0-7.5 3.358-7.5 7.5s3.357 7.5 7.5 7.5h362.936c4.143 0 7.5-3.358 7.5-7.5s-3.357-7.5-7.5-7.5h-7.042v-36.048c0-4.142-3.357-7.5-7.5-7.5s-7.5 3.358-7.5 7.5v36.048h-318.852v-166h75.795c4.143 0 7.5-3.358 7.5-7.5s-3.357-7.5-7.5-7.5h-21.283l103.298-112.7 103.298 112.7h-150.546c-4.143 0-7.5 3.358-7.5 7.5s3.357 7.5 7.5 7.5h208.289v94.681c0 4.142 3.357 7.5 7.5 7.5s7.5-3.358 7.5-7.5v-94.681h7.042c4.143 0 7.5-3.358 7.5-7.5s-3.357-7.5-7.5-7.5h-59.436l-109.131-119.063c14.628-5.799 25-20.091 25-36.76 0-4.142-3.357-7.5-7.5-7.5s-7.5 3.358-7.5 7.5c0 13.522-10.998 24.522-24.517 24.522s-24.517-11-24.517-24.522 10.998-24.523 24.517-24.523c4.143 0 7.5-3.358 7.5-7.5v-52.827h20.497v12.5c0 4.142 3.357 7.5 7.5 7.5s7.5-3.358 7.5-7.5v-12.5h207.016c4.143 0 7.5-3.358 7.5-7.5s-3.357-7.5-7.5-7.5zm-57.997 0h-24.091l16.882-25.327h24.091zm-49.254-25.327h24.019l-16.882 25.327h-24.019zm-34.908 25.327h-24.092l16.883-25.327h24.091zm-215.417-25.327h24.019l-16.882 25.327h-24.019zm-34.908 25.327h-24.092l16.883-25.327h24.091zm-49.254-25.327h24.019l-16.883 25.327h-24.019zm109.324 25.327 16.883-25.327h22.522v25.327zm54.405 0v-25.327h20.496v25.327zm35.496 0v-25.327h20.497v25.327zm35.497-25.327h39.621l-16.883 25.327h-22.738z"/></g></svg>